<svg xmlns="http://www.w3.org/2000/svg" width="96" height="96" viewBox="0 0 512 512" fill="none">
  <circle cx="256" cy="256" r="256" fill="#8b5cf6"></circle>

  <path d="M95 420V128C95 108.118 111.118 92 131 92H312C331.882 92 348 108.118 348 128C348 147.882 331.882 164 312 164H211" stroke="white" stroke-width="12" stroke-linecap="round" stroke-linejoin="round"></path>

  <path d="M95 174H335V252H95V174Z" stroke="white" stroke-width="12" stroke-linejoin="round"></path>

  <path d="M95 252H335V335H95V252Z" stroke="white" stroke-width="12" stroke-linejoin="round"></path>

  <path d="M95 335H335V420H95V335Z" stroke="white" stroke-width="12" stroke-linejoin="round"></path>

  <rect x="120" y="198" width="78" height="32" stroke="white" stroke-width="12" stroke-linejoin="round"></rect>

  <path d="M221 204H239" stroke="white" stroke-width="12" stroke-linecap="round"></path>
  <path d="M253 204H271" stroke="white" stroke-width="12" stroke-linecap="round"></path>
  <path d="M285 204H303" stroke="white" stroke-width="12" stroke-linecap="round"></path>

  <path d="M221 228H239" stroke="white" stroke-width="12" stroke-linecap="round"></path>
  <path d="M253 228H271" stroke="white" stroke-width="12" stroke-linecap="round"></path>
  <path d="M285 228H303" stroke="white" stroke-width="12" stroke-linecap="round"></path>

  <path d="M170 252L183 289H242L255 252" stroke="white" stroke-width="12" stroke-linecap="round" stroke-linejoin="round"></path>

  <path d="M170 335L183 372H242L255 335" stroke="white" stroke-width="12" stroke-linecap="round" stroke-linejoin="round"></path>

  <path d="M335 276L399 246C417 238 436 251 436 270C436 280 430 290 421 295L335 338" stroke="white" stroke-width="12" stroke-linecap="round" stroke-linejoin="round"></path>

  <path d="M335 359L399 329C417 321 436 334 436 353C436 363 430 373 421 378L335 421" stroke="white" stroke-width="12" stroke-linecap="round" stroke-linejoin="round"></path>
</svg>