<svg xmlns="http://www.w3.org/2000/svg"  viewBox="0 0 24 24" width="384px" height="384px" baseProfile="basic"><linearGradient id="y1Z-jMnMZ_W-IPLkx5lm1a" x1="5.742" x2="16.354" y1="7.646" y2="18.258" gradientUnits="userSpaceOnUse"><stop offset="0" stop-color="#fff" stop-opacity=".6"/><stop offset="1" stop-color="#fff" stop-opacity=".3"/></linearGradient><path fill="url(#y1Z-jMnMZ_W-IPLkx5lm1a)" d="M21.797,7.777c-0.172-0.718-1.079-0.959-1.601-0.437c-1.255,1.255-2.653,2.653-2.928,2.928 c-1.036,1.036-2.757,0.973-3.709-0.192c-0.828-1.012-0.651-2.52,0.274-3.445l2.826-2.826c0.522-0.522,0.282-1.43-0.436-1.602 c-1.046-0.251-2.177-0.281-3.349-0.027C9.963,2.808,7.643,5.192,7.122,8.125c-0.234,1.318-0.121,2.587,0.259,3.734l-4.392,4.379 c-1.318,1.318-1.318,3.455,0,4.773c1.318,1.318,3.455,1.318,4.773,0l4.398-4.385c1.142,0.375,2.404,0.484,3.714,0.251 c2.934-0.521,5.318-2.84,5.949-5.752C22.078,9.953,22.047,8.823,21.797,7.777z"/><linearGradient id="y1Z-jMnMZ_W-IPLkx5lm1b" x1="5.742" x2="16.354" y1="7.646" y2="18.258" gradientUnits="userSpaceOnUse"><stop offset="0" stop-color="#fff" stop-opacity=".6"/><stop offset=".493" stop-color="#fff" stop-opacity="0"/><stop offset=".997" stop-color="#fff" stop-opacity=".3"/></linearGradient><path fill="url(#y1Z-jMnMZ_W-IPLkx5lm1b)" d="M14.5,2.5L14.5,2.5 c0.541,0,1.081,0.064,1.607,0.19c0.221,0.053,0.294,0.233,0.315,0.308c0.047,0.165,0.003,0.335-0.116,0.455l-2.826,2.826 c-1.133,1.133-1.268,2.94-0.307,4.115c0.576,0.704,1.424,1.107,2.328,1.107c0.801,0,1.555-0.312,2.121-0.879l0.565-0.565 l2.363-2.363c0.111-0.111,0.236-0.134,0.322-0.134c0.179,0,0.384,0.103,0.439,0.334c0.245,1.022,0.253,2.074,0.025,3.127 c-0.591,2.725-2.821,4.882-5.548,5.366c-0.427,0.076-0.859,0.114-1.284,0.114c-0.747,0-1.483-0.117-2.187-0.348l-0.292-0.096 l-0.217,0.217l-4.399,4.385C6.865,21.201,6.143,21.5,5.375,21.5c-0.768,0-1.49-0.299-2.033-0.842 C2.799,20.115,2.5,19.393,2.5,18.625c0-0.768,0.299-1.49,0.842-2.032l4.392-4.379l0.219-0.218l-0.097-0.293 C7.484,10.58,7.403,9.406,7.615,8.213c0.484-2.727,2.64-4.957,5.366-5.548C13.485,2.556,13.996,2.5,14.5,2.5 M14.5,2 c-0.53,0-1.073,0.057-1.626,0.176C9.963,2.808,7.643,5.192,7.122,8.125c-0.234,1.318-0.121,2.587,0.259,3.734l-4.392,4.379 c-1.318,1.318-1.318,3.455,0,4.773C3.648,21.67,4.511,22,5.375,22c0.864,0,1.727-0.33,2.387-0.989l4.398-4.385 C12.897,16.868,13.685,17,14.503,17c0.449,0,0.907-0.039,1.371-0.122c2.934-0.521,5.318-2.84,5.949-5.752 c0.254-1.172,0.224-2.303-0.027-3.349c-0.109-0.454-0.512-0.718-0.925-0.718c-0.24,0-0.484,0.089-0.676,0.281 c-1.255,1.255-2.653,2.653-2.928,2.928C16.78,10.756,16.14,11,15.5,11c-0.719,0-1.437-0.308-1.941-0.924 c-0.828-1.012-0.651-2.52,0.274-3.445l2.826-2.826c0.522-0.522,0.282-1.43-0.436-1.602C15.67,2.071,15.094,2,14.5,2L14.5,2z"/><linearGradient id="y1Z-jMnMZ_W-IPLkx5lm1c" x1="4.439" x2="6.561" y1="17.439" y2="19.561" gradientUnits="userSpaceOnUse"><stop offset="0" stop-color="#fff" stop-opacity=".7"/><stop offset=".519" stop-color="#fff" stop-opacity=".45"/><stop offset="1" stop-color="#fff" stop-opacity=".55"/></linearGradient><circle cx="5.5" cy="18.5" r="1.5" fill="url(#y1Z-jMnMZ_W-IPLkx5lm1c)"/></svg>