<?xml version="1.0" standalone="no"?>
<!DOCTYPE svg PUBLIC "-//W3C//DTD SVG 20010904//EN"
 "http://www.w3.org/TR/2001/REC-SVG-20010904/DTD/svg10.dtd">
<svg version="1.0" xmlns="http://www.w3.org/2000/svg"
 width="96.000000pt" height="96.000000pt" viewBox="0 0 96.000000 96.000000"
 preserveAspectRatio="xMidYMid meet">

<g transform="translate(0.000000,96.000000) scale(0.100000,-0.100000)"
fill="#000000" stroke="none">
<path d="M558 845 c-164 -39 -178 -40 -178 -23 0 16 -9 18 -75 18 -84 0 -118
-12 -134 -47 -6 -14 -11 -81 -11 -158 l0 -135 320 0 321 0 -3 118 -3 117 -210
5 -210 5 193 45 c107 24 201 49 210 56 21 15 8 44 -20 43 -13 -1 -103 -20
-200 -44z m-138 -245 l0 -60 -100 0 -100 0 0 60 0 60 100 0 100 0 0 -60z m80
40 c0 -13 -7 -20 -20 -20 -13 0 -20 7 -20 20 0 13 7 20 20 20 13 0 20 -7 20
-20z m80 0 c0 -13 -7 -20 -20 -20 -13 0 -20 7 -20 20 0 13 7 20 20 20 13 0 20
-7 20 -20z m80 0 c0 -13 -7 -20 -20 -20 -13 0 -20 7 -20 20 0 13 7 20 20 20
13 0 20 -7 20 -20z m80 0 c0 -13 -7 -20 -20 -20 -13 0 -20 7 -20 20 0 13 7 20
20 20 13 0 20 -7 20 -20z m-240 -80 c0 -13 -7 -20 -20 -20 -13 0 -20 7 -20 20
0 13 7 20 20 20 13 0 20 -7 20 -20z m80 0 c0 -13 -7 -20 -20 -20 -13 0 -20 7
-20 20 0 13 7 20 20 20 13 0 20 -7 20 -20z m80 0 c0 -13 -7 -20 -20 -20 -13 0
-20 7 -20 20 0 13 7 20 20 20 13 0 20 -7 20 -20z"/>
<path d="M160 380 c0 -19 7 -20 98 -20 85 0 100 -3 115 -20 14 -17 29 -20 107
-20 78 0 93 3 107 20 15 17 30 20 115 20 91 0 98 1 98 20 0 20 -7 20 -320 20
-313 0 -320 0 -320 -20z"/>
<path d="M160 220 c0 -19 7 -20 98 -20 85 0 100 -3 115 -20 14 -17 29 -20 107
-20 78 0 93 3 107 20 15 17 30 20 115 20 91 0 98 1 98 20 0 20 -7 20 -320 20
-313 0 -320 0 -320 -20z"/>
</g>
</svg>
